<?xml version="1.0" encoding="UTF-8" standalone="no"?>
<svg
   xmlns:dc="http://purl.org/dc/elements/1.1/"
   xmlns:cc="http://creativecommons.org/ns#"
   xmlns:rdf="http://www.w3.org/1999/02/22-rdf-syntax-ns#"
   xmlns:svg="http://www.w3.org/2000/svg"
   xmlns="http://www.w3.org/2000/svg"
   xmlns:sodipodi="http://sodipodi.sourceforge.net/DTD/sodipodi-0.dtd"
   xmlns:inkscape="http://www.inkscape.org/namespaces/inkscape"
   version="1.0"
   width="337.76999mm"
   height="190.14999mm"
   id="svg2"
   inkscape:version="0.48.4 r9939"
   sodipodi:docname="happy_file.svg">
  <metadata
     id="metadata65">
    <rdf:RDF>
      <cc:Work
         rdf:about="">
        <dc:format>image/svg+xml</dc:format>
        <dc:type
           rdf:resource="http://purl.org/dc/dcmitype/StillImage" />
        <dc:title />
      </cc:Work>
    </rdf:RDF>
  </metadata>
  <sodipodi:namedview
     pagecolor="#ffffff"
     bordercolor="#666666"
     borderopacity="1"
     objecttolerance="10"
     gridtolerance="10"
     guidetolerance="10"
     inkscape:pageopacity="0"
     inkscape:pageshadow="2"
     inkscape:window-width="1920"
     inkscape:window-height="1017"
     id="namedview63"
     showgrid="false"
     inkscape:zoom="1.062814"
     inkscape:cx="445.04494"
     inkscape:cy="336.87991"
     inkscape:window-x="-4"
     inkscape:window-y="-4"
     inkscape:window-maximized="1"
     inkscape:current-layer="svg2" />
  <defs
     id="defs4">
    <clipPath
       clipPathUnits="userSpaceOnUse"
       id="clipEmfPath1">
      <rect
         x="0"
         y="0"
         width="1196.9827"
         height="673.30279"
         id="rect7" />
    </clipPath>
  </defs>
  <path
     style="fill:#ffff00;fill-opacity:1;fill-rule:evenodd;stroke:#000000;stroke-opacity:1;stroke-width:8.716;stroke-miterlimit:4;stroke-dasharray:none"
     d="M 488.15625 47.03125 C 482.01354 47.022775 475.76694 47.107626 469.46875 47.34375 C 368.69777 51.159132 288.19743 85.584806 289.65625 124.1875 C 291.11508 162.8276 373.97902 191.03413 474.75 187.21875 C 575.52098 183.44078 656.02132 149.00894 654.5625 110.40625 C 653.19486 74.181155 580.2969 47.158371 488.15625 47.03125 z M 484.15625 68.84375 C 557.39943 68.390607 615.24831 85.45349 616.125 108.84375 C 617.06014 133.79336 552.84178 156.47014 472.71875 159.5 C 392.59572 162.52986 326.9039 144.76211 325.96875 119.8125 C 325.03361 94.862892 389.22072 72.186113 469.34375 69.15625 C 474.35144 68.966884 479.27337 68.87396 484.15625 68.84375 z "
     id="path13" />
  <path
     inkscape:connector-curvature="0"
     id="path15"
     d="M 289.66982,124.18696 C 288.211,85.584266 368.70809,51.171012 469.47907,47.35563 c 100.77099,-3.777977 183.62464,24.425929 185.08346,63.06603 1.45882,38.60269 -79.03827,73.01595 -179.80925,76.79392 -100.77098,3.81538 -183.62463,-24.38852 -185.08346,-63.02862"
     style="fill:none;stroke:none;stroke-width:8.71599999999999930;stroke-linecap:butt;stroke-linejoin:miter;stroke-miterlimit:4;stroke-opacity:1;stroke-dasharray:none" />
  <path
     inkscape:connector-curvature="0"
     id="path17"
     d="m 325.95336,119.81049 c -0.93514,-24.949608 63.25306,-47.617468 143.37609,-50.647331 80.12303,-3.029863 145.84487,14.73785 146.78001,39.687461 0.93514,24.94961 -63.25306,47.61747 -143.37609,50.64733 -80.12303,3.02986 -145.84486,-14.73785 -146.78001,-39.68746"
     style="fill:none;fill-opacity:1;fill-rule:evenodd;stroke:none" />
  <path
     inkscape:connector-curvature="0"
     id="path21"
     d="m 349.96783,282.82458 c 0.26184,100.80839 0.48627,201.61678 0.71071,302.42517 92.46691,0.0748 119.73568,-2.24434 277.36334,0.26184 l -2.76802,-313.87132 -57.56739,-50.83436 -219.12265,5.08718 0.71071,63.81414"
     style="fill:#a6a6a6;fill-opacity:1;fill-rule:evenodd;stroke:none" />
  <path
     inkscape:connector-curvature="0"
     id="path23"
     d="m 349.96783,282.82458 c 0.26184,100.80839 0.48627,201.61678 0.71071,302.42517 92.46691,0.0748 119.73568,-2.24434 277.36334,0.26184 l -2.76802,-313.87132 -57.56739,-50.83436 -219.12265,5.08718 0.71071,63.81414"
     style="fill:none;stroke:#000000;stroke-width:8.7155304px;stroke-linecap:butt;stroke-linejoin:miter;stroke-miterlimit:4;stroke-opacity:1;stroke-dasharray:none" />
  <path
     inkscape:connector-curvature="0"
     id="path25"
     d="m 393.47067,386.30748 c 0,-11.53966 12.73664,-20.89109 28.44704,-20.89109 15.7104,0 28.44705,9.35143 28.44705,20.89109 0,11.53966 -12.73665,20.87238 -28.44705,20.87238 -15.7104,0 -28.44704,-9.33272 -28.44704,-20.87238"
     style="fill:#ffffff;fill-opacity:1;fill-rule:evenodd;stroke:none" />
  <path
     inkscape:connector-curvature="0"
     id="path27"
     d="m 393.47067,386.30748 c 0,-11.53966 12.73664,-20.89109 28.44704,-20.89109 15.7104,0 28.44705,9.35143 28.44705,20.89109 0,11.53966 -12.73665,20.87238 -28.44705,20.87238 -15.7104,0 -28.44704,-9.33272 -28.44704,-20.87238"
     style="fill:none;stroke:#000000;stroke-width:8.09833622px;stroke-linecap:butt;stroke-linejoin:miter;stroke-miterlimit:4;stroke-opacity:1;stroke-dasharray:none" />
  <path
     inkscape:connector-curvature="0"
     id="path29"
     d="m 498.20666,386.06434 c 0,-11.48355 12.77405,-20.79758 28.52185,-20.79758 15.74781,0 28.52186,9.31403 28.52186,20.79758 0,11.50226 -12.77405,20.81628 -28.52186,20.81628 -15.7478,0 -28.52185,-9.31402 -28.52185,-20.81628"
     style="fill:#ffffff;fill-opacity:1;fill-rule:evenodd;stroke:none" />
  <path
     inkscape:connector-curvature="0"
     id="path31"
     d="m 498.20666,386.06434 c 0,-11.48355 12.77405,-20.79758 28.52185,-20.79758 15.74781,0 28.52186,9.31403 28.52186,20.79758 0,11.50226 -12.77405,20.81628 -28.52186,20.81628 -15.7478,0 -28.52185,-9.31402 -28.52185,-20.81628"
     style="fill:none;stroke:#000000;stroke-width:8.09833622px;stroke-linecap:butt;stroke-linejoin:miter;stroke-miterlimit:4;stroke-opacity:1;stroke-dasharray:none" />
  <path
     inkscape:connector-curvature="0"
     id="path33"
     d="m 404.54276,377.72287 c 0,-5.76048 4.75053,-10.4362 10.58582,-10.4362 5.85399,0 10.60452,4.67572 10.60452,10.4362 0,5.77918 -4.75053,10.45489 -10.60452,10.45489 -5.83529,0 -10.58582,-4.67571 -10.58582,-10.45489"
     style="fill:#000000;fill-opacity:1;fill-rule:evenodd;stroke:none" />
  <path
     inkscape:connector-curvature="0"
     id="path35"
     d="m 404.54276,377.72287 c 0,-5.76048 4.75053,-10.4362 10.58582,-10.4362 5.85399,0 10.60452,4.67572 10.60452,10.4362 0,5.77918 -4.75053,10.45489 -10.60452,10.45489 -5.83529,0 -10.58582,-4.67571 -10.58582,-10.45489"
     style="fill:none;stroke:#000000;stroke-width:8.09833622px;stroke-linecap:butt;stroke-linejoin:miter;stroke-miterlimit:4;stroke-opacity:1;stroke-dasharray:none" />
  <path
     inkscape:connector-curvature="0"
     id="path37"
     d="m 510.21389,376.41367 c 0,-5.72308 4.75053,-10.38009 10.58582,-10.38009 5.85399,0 10.60452,4.65701 10.60452,10.38009 0,5.72307 -4.75053,10.36138 -10.60452,10.36138 -5.83529,0 -10.58582,-4.63831 -10.58582,-10.36138"
     style="fill:#000000;fill-opacity:1;fill-rule:evenodd;stroke:none" />
  <path
     inkscape:connector-curvature="0"
     id="path39"
     d="m 510.21389,376.41367 c 0,-5.72308 4.75053,-10.38009 10.58582,-10.38009 5.85399,0 10.60452,4.65701 10.60452,10.38009 0,5.72307 -4.75053,10.36138 -10.60452,10.36138 -5.83529,0 -10.58582,-4.63831 -10.58582,-10.36138"
     style="fill:none;stroke:#000000;stroke-width:8.09833622px;stroke-linecap:butt;stroke-linejoin:miter;stroke-miterlimit:4;stroke-opacity:1;stroke-dasharray:none" />
  <path
     inkscape:connector-curvature="0"
     id="path41"
     d="m 541.7282,473.74333 c -3.36651,24.68776 -36.26483,42.88564 -73.46481,40.6413 -27.92336,-1.66455 -51.37674,-14.58823 -58.98881,-32.48686"
     style="fill:none;stroke:#000000;stroke-width:8.73423386px;stroke-linecap:butt;stroke-linejoin:miter;stroke-miterlimit:4;stroke-opacity:1;stroke-dasharray:none" />
  <path
     inkscape:connector-curvature="0"
     id="path43"
     d="m 382.24896,360.59105 c 9.68808,-6.22805 19.37616,-12.4748 31.28987,-14.32639 11.89502,-1.85158 25.99697,0.67331 40.09893,3.17949"
     style="fill:none;stroke:#000000;stroke-width:8.73423386px;stroke-linecap:butt;stroke-linejoin:miter;stroke-miterlimit:4;stroke-opacity:1;stroke-dasharray:none" />
  <path
     inkscape:connector-curvature="0"
     id="path45"
     d="m 489.64075,354.19467 c 7.1632,-4.35776 14.32639,-8.73423 25.69773,-8.73423 11.37133,0 26.96951,4.37647 42.56769,8.73423"
     style="fill:none;stroke:#000000;stroke-width:8.73423386px;stroke-linecap:butt;stroke-linejoin:miter;stroke-miterlimit:4;stroke-opacity:1;stroke-dasharray:none" />
  <path
     inkscape:connector-curvature="0"
     id="path47"
     d="m 464.07395,404.69238 c -0.72941,10.21176 -1.45882,20.44222 -5.59215,29.64403 -4.15204,9.22051 -17.61809,18.31009 -19.22654,25.64161 -1.58974,7.35023 4.00241,12.88627 9.61327,18.44102"
     style="fill:none;stroke:#000000;stroke-width:8.73423386px;stroke-linecap:butt;stroke-linejoin:miter;stroke-miterlimit:4;stroke-opacity:1;stroke-dasharray:none" />
  <path
     inkscape:connector-curvature="0"
     id="path49"
     d="m 528.13123,469.68481 26.50194,7.94871"
     style="fill:none;stroke:#000000;stroke-width:8.73423386px;stroke-linecap:butt;stroke-linejoin:miter;stroke-miterlimit:4;stroke-opacity:1;stroke-dasharray:none" />
  <path
     inkscape:connector-curvature="0"
     id="path51"
     d="m 417.46643,476.08118 c -1.25309,2.52489 -2.52488,5.04977 -5.59215,7.1819 -3.06727,2.13212 -7.93001,3.87149 -12.79275,5.59215"
     style="fill:none;stroke:#000000;stroke-width:8.73423386px;stroke-linecap:butt;stroke-linejoin:miter;stroke-miterlimit:4;stroke-opacity:1;stroke-dasharray:none" />
  <path
     inkscape:connector-curvature="0"
     id="path53"
     d="m 564.30255,222.82582 c 0,18.14177 0,35.46061 0,53.60238 l 60.14838,-1.60844"
     style="fill:none;stroke:#000000;stroke-width:8.7155304px;stroke-linecap:butt;stroke-linejoin:miter;stroke-miterlimit:4;stroke-opacity:1;stroke-dasharray:none" />
  <path
     inkscape:connector-curvature="0"
     id="path55"
     d="m 374.30024,258.81011 167.54018,-3.12337"
     style="fill:none;stroke:#000000;stroke-width:8.73423386px;stroke-linecap:butt;stroke-linejoin:miter;stroke-miterlimit:4;stroke-opacity:1;stroke-dasharray:none" />
  <path
     inkscape:connector-curvature="0"
     id="path57"
     d="m 374.76782,275.32473 167.7085,-3.10467"
     style="fill:none;stroke:#000000;stroke-width:8.73423386px;stroke-linecap:butt;stroke-linejoin:miter;stroke-miterlimit:4;stroke-opacity:1;stroke-dasharray:none" />
  <path
     inkscape:connector-curvature="0"
     id="path59"
     d="m 376.32015,294.66349 167.70851,-3.273"
     style="fill:none;stroke:#000000;stroke-width:8.73423386px;stroke-linecap:butt;stroke-linejoin:miter;stroke-miterlimit:4;stroke-opacity:1;stroke-dasharray:none" />
  <path
     inkscape:connector-curvature="0"
     id="path61"
     d="m 375.55334,242.59474 167.6898,-3.273"
     style="fill:none;stroke:#000000;stroke-width:8.73423386px;stroke-linecap:butt;stroke-linejoin:miter;stroke-miterlimit:4;stroke-opacity:1;stroke-dasharray:none" />
</svg>
